<?xml version="1.0" encoding="UTF-8" standalone="no"?>
<!-- Created with Inkscape (http://www.inkscape.org/) -->

<svg
   width="180"
   height="180"
   viewBox="0 0 180 180"
   version="1.1"
   id="svg1"
   xml:space="preserve"
   inkscape:version="1.4 (86a8ad7, 2024-10-11)"
   sodipodi:docname="hoja.svg"
   xmlns:inkscape="http://www.inkscape.org/namespaces/inkscape"
   xmlns:sodipodi="http://sodipodi.sourceforge.net/DTD/sodipodi-0.dtd"
   xmlns="http://www.w3.org/2000/svg"
   xmlns:svg="http://www.w3.org/2000/svg"><sodipodi:namedview
     id="namedview1"
     pagecolor="#ffffff"
     bordercolor="#000000"
     borderopacity="0.25"
     inkscape:showpageshadow="2"
     inkscape:pageopacity="0.0"
     inkscape:pagecheckerboard="0"
     inkscape:deskcolor="#d1d1d1"
     inkscape:document-units="px"
     inkscape:zoom="2.3138889"
     inkscape:cx="-13.181273"
     inkscape:cy="54.237695"
     inkscape:window-width="1920"
     inkscape:window-height="1051"
     inkscape:window-x="-9"
     inkscape:window-y="-9"
     inkscape:window-maximized="1"
     inkscape:current-layer="layer1" /><defs
     id="defs1" /><g
     inkscape:label="Capa 1"
     inkscape:groupmode="layer"
     id="layer1"><g
       id="g1"
       transform="matrix(1.5348866,0,0,1.6910208,-54.503258,-21.048523)"
       inkscape:label="g1"><path
         style="fill:#a4c736"
         d="m 62.12365,109.71429 c 0.252941,-0.48839 1.537185,-1.69553 2.087185,-1.69553 0.55,0 -0.08719,1.14553 -0.08719,1.69553 0,0.55 -1.543938,1.45918 -2.093938,1.45918 -0.55,0 -1.033763,0.71822 0.09394,-1.45918 z m 8,-8 c 0.269076,-0.47969 0.515562,-0.73958 1,-1 1.846519,-0.992647 1,0.45 1,1 0,0.55 -1.435894,1.2431 -1.985894,1.2431 -0.55,0 -0.932473,0.39408 -0.01411,-1.2431 z m 1.080765,-15.672702 -0.180745,-8.200611 3.79999,-0.313346 c 3.591924,-0.296188 3.816797,-0.515554 4.106959,-4.006376 0.288416,-3.469833 0.530167,-3.711584 4,-4 3.481161,-0.289358 3.710836,-0.522107 4.003396,-4.056969 l 0.310365,-3.75 h 19.87927 19.87927 l 0.31036,3.75 c 0.29256,3.534862 0.52224,3.767611 4.0034,4.056969 3.46983,0.288416 3.71158,0.530167 4,4 0.28769,3.461072 0.53624,3.712151 3.95712,3.997444 3.45724,0.288323 3.67004,0.512948 4.02643,4.25 l 0.29987,4.881464 -8.14272,-0.0382 -8.33373,-0.897678 v -4 -4 h -16 -16 v 4 4 h -8 -8 v 3.894964 c 0,3.791945 0.251184,4.272679 -3.458605,5.018388 L 71.833999,95.39772 Z M 50.930619,69.907317 c -3.478035,-0.161859 -3.711584,-0.530168 -4,-4 C 46.64126,62.426156 46.408512,62.19648 42.87365,61.903921 l -3.75,-0.310366 V 49.866628 38.139701 l 3.138236,-0.239125 c 4.324597,-0.329523 4.861764,-0.830321 4.861764,-4.5326 0,-2.901108 0.318042,-3.252509 3.138236,-3.4674 4.357908,-0.332061 4.861764,-0.823848 4.861764,-4.745307 0,-3.226163 0.206018,-3.440983 3.3,-3.440983 1.815,0 6.49829,-0.753551 7.045795,-1.301057 0.660619,-0.660619 0.04801,9.310154 -0.31398,12.459382 -0.53376,4.643639 0.346801,3.513276 -3.052987,2.151504 l -3.4243,-1.371591 -1.645273,16.523724 0.493872,20.038038 z"
         id="path2"
         sodipodi:nodetypes="ssssssssssccsssscccssssscccccccccccssccssscccsssssssscccs" /><path
         style="fill:#0c9241"
         d="m 55.735335,116.84792 c -0.19938,-0.3485 -0.306074,-1.98363 -0.237098,-3.63363 0.114461,-2.73802 0.43106,-3 3.625413,-3 3.327602,0 3.5,0.17092 3.5,3.47016 0,3.21781 -0.237285,3.48206 -3.262903,3.63363 -1.794596,0.0899 -3.426032,-0.12166 -3.625412,-0.47016 z m 32.076232,0.0363 c -0.182118,-0.36845 -0.412674,-1.98369 -0.512347,-3.58941 -0.224432,-3.61558 -0.118937,-3.5202 -4.257403,-3.84944 -3.156003,-0.25108 -3.441711,-0.55361 -3.725136,-3.94453 -0.28805,-3.44624 -0.534581,-3.69152 -4,-3.97957 -3.49547,-0.29054 -3.693031,-0.4942 -3.693031,-3.806964 0,-3.322602 0.190069,-3.515731 3.75,-3.810365 3.646236,-0.301778 3.75,-0.419376 3.75,-4.25 v -3.939635 h 8 8 v -4 -4 h 16 16 v 3.968265 3.968264 l 11.75,0.281736 11.75,0.281735 v 3.5 3.5 l -7.69208,0.291021 -7.69208,0.291022 -0.30792,3.708978 c -0.29052,3.499413 -0.5198,3.726513 -4.05792,4.019343 -3.05349,0.25272 -3.77143,0.71706 -3.86535,2.5 -0.0634,1.2043 -0.17594,2.86464 -0.25,3.68964 -0.10456,1.16476 -1.86668,1.56527 -7.88465,1.79206 -7.19743,0.27124 -7.75822,0.44949 -7.86535,2.5 -0.0634,1.21436 -0.17594,2.88294 -0.25,3.70794 -0.10999,1.22525 -2.1935,1.53112 -11.375129,1.66991 -6.182264,0.0934 -11.389485,-0.13155 -11.571604,-0.5 z M 63.537693,108.3509 c -0.314713,-0.82013 -0.424119,-2.53637 -0.243125,-3.81387 0.27276,-1.92519 0.928101,-2.32272 3.829082,-2.32272 3.333333,0 3.5,0.16666 3.5,3.5 0,3.21931 -0.261184,3.52517 -3.256876,3.81387 -2.184062,0.21048 -3.445359,-0.17731 -3.829081,-1.17728 z M 55.670922,84.928225 c -0.301,-0.301 -0.547272,-12.847272 -0.547272,-27.880606 V 29.714286 h 3.531384 c 4.154071,0 4.404451,-0.476963 4.724519,-9 l 0.244097,-6.5 h 3.5 c 3.860285,0 3.705472,-0.385259 3.8937,9.689635 l 0.1063,5.689634 3.75,0.310366 3.75,0.310365 v 11.5 11.5 l -3.75,0.310365 -3.75,0.310365 -0.11535,6.189635 c -0.177229,9.510038 -0.02482,9.159854 -4.13465,9.5 l -3.75,0.310365 -0.11535,6.189635 c -0.174257,9.350576 -0.08058,9.108058 -3.587378,9.287219 -1.761501,0.09 -3.449001,-0.08265 -3.75,-0.383645 z"
         id="path1"
         sodipodi:nodetypes="sssssssssssssscccccccccccccccsscsscscssssssssscsscsscccccccsscsss" /></g></g></svg>
