<?xml version="1.0" standalone="no"?>
<svg xmlns:xlink="http://www.w3.org/1999/xlink" id="wave" style="transform:rotate(180deg); transition: 0.3s" viewBox="0 0 1440 300" version="1.1" xmlns="http://www.w3.org/2000/svg"><defs><linearGradient id="sw-gradient-0" x1="0" x2="0" y1="1" y2="0"><stop stop-color="rgba(1, 33, 105, 1)" offset="0%"/><stop stop-color="rgba(1, 33, 105, 1)" offset="100%"/></linearGradient></defs><path style="transform:translate(0, 0px); opacity:1" fill="url(#sw-gradient-0)" d="M0,30L26.7,30C53.3,30,107,30,160,60C213.3,90,267,150,320,185C373.3,220,427,230,480,205C533.3,180,587,120,640,95C693.3,70,747,80,800,105C853.3,130,907,170,960,185C1013.3,200,1067,190,1120,175C1173.3,160,1227,140,1280,110C1333.3,80,1387,40,1440,30C1493.3,20,1547,40,1600,80C1653.3,120,1707,180,1760,185C1813.3,190,1867,140,1920,100C1973.3,60,2027,30,2080,60C2133.3,90,2187,180,2240,205C2293.3,230,2347,190,2400,185C2453.3,180,2507,210,2560,190C2613.3,170,2667,100,2720,75C2773.3,50,2827,70,2880,75C2933.3,80,2987,70,3040,80C3093.3,90,3147,120,3200,145C3253.3,170,3307,190,3360,210C3413.3,230,3467,250,3520,215C3573.3,180,3627,90,3680,85C3733.3,80,3787,160,3813,200L3840,240L3840,300L3813.3,300C3786.7,300,3733,300,3680,300C3626.7,300,3573,300,3520,300C3466.7,300,3413,300,3360,300C3306.7,300,3253,300,3200,300C3146.7,300,3093,300,3040,300C2986.7,300,2933,300,2880,300C2826.7,300,2773,300,2720,300C2666.7,300,2613,300,2560,300C2506.7,300,2453,300,2400,300C2346.7,300,2293,300,2240,300C2186.7,300,2133,300,2080,300C2026.7,300,1973,300,1920,300C1866.7,300,1813,300,1760,300C1706.7,300,1653,300,1600,300C1546.7,300,1493,300,1440,300C1386.7,300,1333,300,1280,300C1226.7,300,1173,300,1120,300C1066.7,300,1013,300,960,300C906.7,300,853,300,800,300C746.7,300,693,300,640,300C586.7,300,533,300,480,300C426.7,300,373,300,320,300C266.7,300,213,300,160,300C106.7,300,53,300,27,300L0,300Z"/></svg>