<?xml version="1.0" standalone="no"?>
<svg xmlns:xlink="http://www.w3.org/1999/xlink" id="wave" style="transform:rotate(0deg); transition: 0.3s" viewBox="0 0 1440 220" version="1.1" xmlns="http://www.w3.org/2000/svg"><defs><linearGradient id="sw-gradient-0" x1="0" x2="0" y1="1" y2="0"><stop stop-color="rgba(0, 34, 88, 1)" offset="0%"/><stop stop-color="rgba(0, 34, 88, 1)" offset="100%"/></linearGradient></defs><path style="transform:translate(0, 0px); opacity:1" fill="url(#sw-gradient-0)" d="M0,66L20,84.3C40,103,80,139,120,161.3C160,183,200,191,240,194.3C280,198,320,198,360,172.3C400,147,440,95,480,88C520,81,560,117,600,139.3C640,161,680,169,720,165C760,161,800,147,840,124.7C880,103,920,73,960,66C1000,59,1040,73,1080,95.3C1120,117,1160,147,1200,161.3C1240,176,1280,176,1320,157.7C1360,139,1400,103,1440,73.3C1480,44,1520,22,1560,11C1600,0,1640,0,1680,3.7C1720,7,1760,15,1800,25.7C1840,37,1880,51,1920,80.7C1960,110,2000,154,2040,154C2080,154,2120,110,2160,106.3C2200,103,2240,139,2280,150.3C2320,161,2360,147,2400,150.3C2440,154,2480,176,2520,168.7C2560,161,2600,125,2640,117.3C2680,110,2720,132,2760,143C2800,154,2840,154,2860,154L2880,154L2880,220L2860,220C2840,220,2800,220,2760,220C2720,220,2680,220,2640,220C2600,220,2560,220,2520,220C2480,220,2440,220,2400,220C2360,220,2320,220,2280,220C2240,220,2200,220,2160,220C2120,220,2080,220,2040,220C2000,220,1960,220,1920,220C1880,220,1840,220,1800,220C1760,220,1720,220,1680,220C1640,220,1600,220,1560,220C1520,220,1480,220,1440,220C1400,220,1360,220,1320,220C1280,220,1240,220,1200,220C1160,220,1120,220,1080,220C1040,220,1000,220,960,220C920,220,880,220,840,220C800,220,760,220,720,220C680,220,640,220,600,220C560,220,520,220,480,220C440,220,400,220,360,220C320,220,280,220,240,220C200,220,160,220,120,220C80,220,40,220,20,220L0,220Z"/></svg>